<svg width="135" height="91" viewBox="0 0 135 91" fill="none" xmlns="http://www.w3.org/2000/svg">
<g filter="url(#filter0_d_38_4)">
<path fill-rule="evenodd" clip-rule="evenodd" d="M31.1439 41.752C32.4666 39.832 33.1279 37.5067 33.1279 34.776C33.1279 32.3867 32.6373 30.4027 31.6559 28.824C30.7173 27.2453 29.3092 25.9013 27.4319 24.792C25.5972 23.64 23.3359 22.5733 20.6479 21.592C18.1733 20.6533 16.2106 19.7787 14.7599 18.968C13.3092 18.1573 12.2639 17.24 11.6239 16.216C10.9839 15.192 10.6639 13.912 10.6639 12.376C10.6639 11.0533 10.9839 9.90133 11.6239 8.92C12.2639 7.896 13.2239 7.10667 14.5039 6.552C15.7839 5.99733 17.3839 5.72 19.3039 5.72C21.3092 5.72 23.2292 5.95466 25.0639 6.424C26.9412 6.89333 28.6693 7.46933 30.2479 8.152L32.0399 3.224C30.3333 2.456 28.4346 1.83733 26.3439 1.368C24.2533 0.898664 21.9492 0.663998 19.4319 0.663998C16.5733 0.663998 14.0346 1.13333 11.8159 2.072C9.63992 3.01067 7.93325 4.35467 6.69592 6.104C5.45858 7.81066 4.83992 9.88 4.83992 12.312C4.83992 14.104 5.07458 15.6827 5.54392 17.048C6.05592 18.4133 6.80258 19.6293 7.78392 20.696C8.76525 21.7627 9.98125 22.7227 11.4319 23.576C12.9253 24.3867 14.6533 25.1547 16.6159 25.88C19.3893 26.8613 21.5439 27.8 23.0799 28.696C24.6586 29.5493 25.7679 30.488 26.4079 31.512C27.0479 32.536 27.3679 33.7947 27.3679 35.288C27.3679 36.7813 26.9839 38.0827 26.2159 39.192C25.4479 40.3013 24.2959 41.1547 22.7599 41.752C21.2239 42.3493 19.3253 42.648 17.0639 42.648C14.6319 42.648 12.2639 42.3707 9.95992 41.816C7.69858 41.2613 5.79992 40.6427 4.26392 39.96V45.464C5.24525 45.9333 6.37592 46.3387 7.65592 46.68C8.93592 46.9787 10.3439 47.2133 11.8799 47.384C13.4586 47.5547 15.1013 47.64 16.8079 47.64C20.1359 47.64 23.0159 47.128 25.4479 46.104C27.9226 45.08 29.8213 43.6293 31.1439 41.752ZM61.6609 32.856L67.1649 47H73.1169L55.3249 1.112H50.1409L32.2849 47H38.1089L43.5489 32.856H61.6609ZM54.1729 12.056C54.4716 12.952 54.6849 13.5707 54.8129 13.912L59.9329 27.736H45.4689L50.6529 13.912C50.8236 13.4 51.0156 12.7813 51.2289 12.056C51.4849 11.3307 51.7196 10.5413 51.9329 9.688C52.1889 8.792 52.4236 7.91733 52.6369 7.064C52.8076 7.576 53.0209 8.32266 53.2769 9.304C53.5756 10.2427 53.8742 11.16 54.1729 12.056ZM75.5279 47H81.2879V27.608H99.8479V22.552H81.2879V6.36H101.064V1.304H75.5279V47ZM104.875 47H130.411V41.944H110.635V25.624H129.259V20.632H110.635V6.36H130.411V1.304H104.875V47ZM52.1439 82C53.6372 82.256 54.8319 82.384 55.7279 82.384C56.8799 82.384 58.0959 82.256 59.3759 82C58.5226 80.08 58.0959 76.88 58.0959 72.4C58.0959 69.4133 58.1599 66.832 58.2879 64.656L58.3519 61.904C59.8452 60.9227 61.6799 60.432 63.8559 60.432C65.4346 60.432 66.5653 60.816 67.2479 61.584C67.9306 62.3093 68.2719 63.5253 68.2719 65.232C68.2719 71.248 68.1226 76.8373 67.8239 82C69.3173 82.256 70.5973 82.384 71.6639 82.384C72.7306 82.384 73.8399 82.256 74.9919 82C74.1813 80.0373 73.7759 76.8373 73.7759 72.4C73.7759 70.992 73.7972 69.84 73.8399 68.944C73.9252 65.8293 73.9466 63.4827 73.9039 61.904C75.5253 60.9227 77.4026 60.432 79.5359 60.432C81.1146 60.432 82.2453 60.816 82.9279 61.584C83.6106 62.3093 83.9519 63.5253 83.9519 65.232C83.9519 71.248 83.8026 76.8373 83.5039 82C84.9973 82.256 86.2773 82.384 87.3439 82.384C88.4106 82.384 89.5413 82.256 90.7359 82C89.8399 79.9947 89.3919 76.7947 89.3919 72.4C89.3919 71.12 89.4559 69.6907 89.5839 68.112L89.7119 64.08C89.7119 58.192 87.2373 55.248 82.2879 55.248C80.6666 55.248 79.0666 55.6533 77.4879 56.464C75.9092 57.2747 74.5652 58.4053 73.4559 59.856C72.5173 56.784 70.2346 55.248 66.6079 55.248C65.1146 55.248 63.6213 55.6107 62.1279 56.336C60.6346 57.0613 59.3333 58.0427 58.2239 59.28C57.8826 56.7627 56.6026 55.504 54.3839 55.504C53.7439 55.504 53.0399 55.696 52.2719 56.08C51.5039 56.4213 50.7786 56.9973 50.0959 57.808C50.8213 58.576 51.3332 59.3227 51.6319 60.048C51.9733 60.7733 52.2079 61.7547 52.3359 62.992C52.5066 64.2293 52.5919 66.0213 52.5919 68.368C52.5919 73.1893 52.4426 77.7333 52.1439 82ZM96.4124 79.376C98.2471 81.5947 100.871 82.704 104.284 82.704C106.588 82.704 108.828 82.192 111.004 81.168C113.223 80.1013 114.994 78.7147 116.316 77.008L115.868 75.792C114.759 76.5173 113.415 77.0933 111.836 77.52C110.3 77.904 108.658 78.096 106.908 78.096C104.647 78.096 102.919 77.52 101.724 76.368C100.572 75.1733 99.8684 73.2747 99.6124 70.672C102.727 70.5867 105.884 70.352 109.084 69.968C112.284 69.5413 115.015 69.0507 117.276 68.496C117.276 64.144 116.38 60.8587 114.588 58.64C112.839 56.3787 110.258 55.248 106.844 55.248C104.284 55.248 102.002 55.8667 99.9964 57.104C98.0338 58.3413 96.4977 60.0693 95.3884 62.288C94.2791 64.464 93.7244 66.96 93.7244 69.776C93.7244 73.9147 94.6204 77.1147 96.4124 79.376ZM105.756 67.6C103.708 68.0693 101.618 68.4107 99.4844 68.624C99.4844 66.192 99.8684 64.0373 100.636 62.16C101.447 60.2827 102.514 58.96 103.836 58.192C105.799 58.192 107.399 58.9173 108.636 60.368C109.916 61.8187 110.578 63.6747 110.62 65.936C109.426 66.5333 107.804 67.088 105.756 67.6Z" fill="white"/>
</g>
<defs>
<filter id="filter0_d_38_4" x="0.263916" y="0.664001" width="134.147" height="90.04" filterUnits="userSpaceOnUse" color-interpolation-filters="sRGB">
<feFlood flood-opacity="0" result="BackgroundImageFix"/>
<feColorMatrix in="SourceAlpha" type="matrix" values="0 0 0 0 0 0 0 0 0 0 0 0 0 0 0 0 0 0 127 0" result="hardAlpha"/>
<feOffset dy="4"/>
<feGaussianBlur stdDeviation="2"/>
<feComposite in2="hardAlpha" operator="out"/>
<feColorMatrix type="matrix" values="0 0 0 0 0 0 0 0 0 0 0 0 0 0 0 0 0 0 0.25 0"/>
<feBlend mode="normal" in2="BackgroundImageFix" result="effect1_dropShadow_38_4"/>
<feBlend mode="normal" in="SourceGraphic" in2="effect1_dropShadow_38_4" result="shape"/>
</filter>
</defs>
</svg>
